<?xml version="1.0" encoding="UTF-8"?>
<svg xmlns="http://www.w3.org/2000/svg" xmlns:xlink="http://www.w3.org/1999/xlink" width="200" height="52" viewBox="0 0 200 52">
<path fill="none" stroke-width="4.5" stroke-linecap="round" stroke-linejoin="miter" stroke="rgb(100%, 100%, 100%)" stroke-opacity="1" stroke-miterlimit="10" d="M 8 44 C 12.28125 26 20.839844 10.988281 28 8 C 35.160156 10.988281 43.71875 26 48 44 "/>
<path fill-rule="nonzero" fill="rgb(90.980392%, 36.470588%, 22.745098%)" fill-opacity="1" d="M 33.5 8 C 33.5 11.039062 31.039062 13.5 28 13.5 C 24.960938 13.5 22.5 11.039062 22.5 8 C 22.5 4.960938 24.960938 2.5 28 2.5 C 31.039062 2.5 33.5 4.960938 33.5 8 "/>
<path fill-rule="nonzero" fill="rgb(100%, 100%, 100%)" fill-opacity="1" d="M 56.84375 28.59375 C 56.84375 26.875 57.164062 25.371094 57.8125 24.078125 C 58.46875 22.777344 59.351562 21.777344 60.46875 21.078125 C 61.59375 20.371094 62.84375 20.015625 64.21875 20.015625 C 65.394531 20.015625 66.425781 20.257812 67.3125 20.734375 C 68.207031 21.214844 68.894531 21.84375 69.375 22.625 L 69.375 20.265625 L 74.515625 20.265625 L 74.515625 37 L 69.375 37 L 69.375 34.625 C 68.875 35.40625 68.175781 36.039062 67.28125 36.515625 C 66.394531 36.996094 65.363281 37.234375 64.1875 37.234375 C 62.832031 37.234375 61.59375 36.882812 60.46875 36.171875 C 59.351562 35.464844 58.46875 34.460938 57.8125 33.15625 C 57.164062 31.84375 56.84375 30.324219 56.84375 28.59375 Z M 69.375 28.625 C 69.375 27.34375 69.019531 26.335938 68.3125 25.59375 C 67.601562 24.855469 66.738281 24.484375 65.71875 24.484375 C 64.695312 24.484375 63.832031 24.855469 63.125 25.59375 C 62.414062 26.324219 62.0625 27.324219 62.0625 28.59375 C 62.0625 29.875 62.414062 30.890625 63.125 31.640625 C 63.832031 32.390625 64.695312 32.765625 65.71875 32.765625 C 66.738281 32.765625 67.601562 32.398438 68.3125 31.65625 C 69.019531 30.917969 69.375 29.90625 69.375 28.625 Z M 77.214844 28.59375 C 77.214844 26.875 77.535156 25.371094 78.183594 24.078125 C 78.839844 22.777344 79.722656 21.777344 80.839844 21.078125 C 81.964844 20.371094 83.214844 20.015625 84.589844 20.015625 C 85.691406 20.015625 86.699219 20.25 87.605469 20.71875 C 88.511719 21.179688 89.222656 21.792969 89.746094 22.5625 L 89.746094 14.796875 L 94.886719 14.796875 L 94.886719 37 L 89.746094 37 L 89.746094 34.59375 C 89.265625 35.398438 88.578125 36.039062 87.683594 36.515625 C 86.796875 36.996094 85.765625 37.234375 84.589844 37.234375 C 83.214844 37.234375 81.964844 36.882812 80.839844 36.171875 C 79.722656 35.464844 78.839844 34.460938 78.183594 33.15625 C 77.535156 31.84375 77.214844 30.324219 77.214844 28.59375 Z M 89.746094 28.625 C 89.746094 27.34375 89.390625 26.335938 88.683594 25.59375 C 87.972656 24.855469 87.109375 24.484375 86.089844 24.484375 C 85.066406 24.484375 84.203125 24.855469 83.496094 25.59375 C 82.785156 26.324219 82.433594 27.324219 82.433594 28.59375 C 82.433594 29.875 82.785156 30.890625 83.496094 31.640625 C 84.203125 32.390625 85.066406 32.765625 86.089844 32.765625 C 87.109375 32.765625 87.972656 32.398438 88.683594 31.65625 C 89.390625 30.917969 89.746094 29.90625 89.746094 28.625 Z M 106.128906 32.203125 L 109.753906 20.265625 L 115.222656 20.265625 L 109.285156 37 L 102.941406 37 L 97.003906 20.265625 L 102.503906 20.265625 Z M 115.519531 37 "/>
<path fill-rule="nonzero" fill="rgb(100%, 100%, 100%)" fill-opacity="0.55" d="M 124.160156 33.9375 L 128.832031 20.46875 L 132.472656 20.46875 L 126.175781 37 L 122.082031 37 L 115.816406 20.46875 L 119.472656 20.46875 Z M 136.785156 18.28125 C 136.167969 18.28125 135.648438 18.074219 135.222656 17.65625 C 134.804688 17.230469 134.597656 16.710938 134.597656 16.09375 C 134.597656 15.46875 134.804688 14.949219 135.222656 14.53125 C 135.648438 14.117188 136.167969 13.90625 136.785156 13.90625 C 137.386719 13.90625 137.898438 14.117188 138.316406 14.53125 C 138.742188 14.949219 138.957031 15.46875 138.957031 16.09375 C 138.957031 16.710938 138.742188 17.230469 138.316406 17.65625 C 137.898438 18.074219 137.386719 18.28125 136.785156 18.28125 Z M 138.472656 20.46875 L 138.472656 37 L 135.050781 37 L 135.050781 20.46875 Z M 141.828125 28.65625 C 141.828125 27 142.171875 25.53125 142.859375 24.25 C 143.554688 22.96875 144.5 21.976562 145.6875 21.265625 C 146.875 20.558594 148.1875 20.203125 149.625 20.203125 C 150.925781 20.203125 152.0625 20.460938 153.03125 20.96875 C 154 21.480469 154.773438 22.117188 155.359375 22.875 L 155.359375 20.46875 L 158.8125 20.46875 L 158.8125 37 L 155.359375 37 L 155.359375 34.546875 C 154.773438 35.320312 153.984375 35.964844 152.984375 36.484375 C 151.984375 37.003906 150.84375 37.265625 149.5625 37.265625 C 148.144531 37.265625 146.847656 36.902344 145.671875 36.171875 C 144.492188 35.445312 143.554688 34.429688 142.859375 33.125 C 142.171875 31.8125 141.828125 30.324219 141.828125 28.65625 Z M 155.359375 28.71875 C 155.359375 27.585938 155.125 26.59375 154.65625 25.75 C 154.1875 24.90625 153.570312 24.265625 152.8125 23.828125 C 152.050781 23.390625 151.226562 23.171875 150.34375 23.171875 C 149.46875 23.171875 148.648438 23.386719 147.890625 23.8125 C 147.128906 24.242188 146.515625 24.871094 146.046875 25.703125 C 145.578125 26.539062 145.34375 27.523438 145.34375 28.65625 C 145.34375 29.804688 145.578125 30.808594 146.046875 31.671875 C 146.515625 32.527344 147.132812 33.179688 147.90625 33.625 C 148.675781 34.074219 149.488281 34.296875 150.34375 34.296875 C 151.226562 34.296875 152.050781 34.078125 152.8125 33.640625 C 153.570312 33.203125 154.1875 32.5625 154.65625 31.71875 C 155.125 30.867188 155.359375 29.867188 155.359375 28.71875 Z M 161.058594 37 "/>
</svg>
